<svg clip-rule="evenodd" fill-rule="evenodd" height="512" image-rendering="optimizeQuality" shape-rendering="geometricPrecision" text-rendering="geometricPrecision" viewBox="0 0 2833 2833" width="512" xmlns="http://www.w3.org/2000/svg" xmlns:xlink="http://www.w3.org/1999/xlink"><linearGradient id="id0" gradientUnits="userSpaceOnUse" x1="0" x2="2833.33" y1="1416.67" y2="1416.67"><stop offset="0" stop-color="#000"/><stop offset=".0588235" stop-color="#000"/><stop offset=".168627" stop-color="#000"/><stop offset=".278431" stop-color="#000"/><stop offset=".4" stop-color="#000"/><stop offset=".521569" stop-color="#000"/><stop offset=".960784" stop-color="#000"/><stop offset="1" stop-color="#000"/></linearGradient><g id="Layer_x0020_1"><circle cx="1417" cy="1417" fill="url(#id0)" r="1417"/><g id="_613515600"><g><g><g><g><path d="m2114 2084h-1395c-86 0-156-69-156-155v-889c0-85 70-155 156-155h1395c86 0 156 70 156 155v889c0 86-70 155-156 155zm-1395-1159c-64 0-116 52-116 115v889c0 64 52 115 116 115h1395c64 0 116-51 116-115v-889c0-63-52-115-116-115z" fill="#fcfcfc"/></g><g><path d="m1716 1951h-863c-86 0-156-70-156-157v-619c0-87 70-157 156-157h863c86 0 157 70 157 157v619c0 87-71 157-157 157zm-863-893c-64 0-116 52-116 117v619c0 65 52 117 116 117h863c64 0 117-52 117-117v-619c0-65-53-117-117-117z" fill="#fcfcfc"/></g><g><path d="m2178 1273h-253c-11 0-20-9-20-20v-138c0-12 9-20 20-20h253c11 0 20 8 20 20v138c0 11-9 20-20 20zm-233-40h213v-98h-213z" fill="#fcfcfc"/></g><g><path d="m2178 1360h-253c-11 0-20-8-20-20 0-11 9-20 20-20h253c11 0 20 9 20 20 0 12-9 20-20 20z" fill="#fcfcfc"/></g><g><path d="m2178 1448h-253c-11 0-20-9-20-20 0-12 9-20 20-20h253c11 0 20 8 20 20 0 11-9 20-20 20z" fill="#fcfcfc"/></g><g><path d="m2178 1535h-253c-11 0-20-9-20-20s9-20 20-20h253c11 0 20 9 20 20s-9 20-20 20z" fill="#fcfcfc"/></g><g><path d="m2051 1875c-80 0-146-66-146-147s66-146 146-146c81 0 147 65 147 146s-66 147-147 147zm0-253c-58 0-106 47-106 106s48 107 106 107c59 0 107-48 107-107s-48-106-107-106z" fill="#fcfcfc"/></g><g><path d="m2051 1875c-11 0-20-9-20-20v-127c0-11 9-20 20-20s20 9 20 20v127c0 11-9 20-20 20z" fill="#fcfcfc"/></g></g><g><g><path d="m1417 925c-6 0-11-2-15-6l-304-315c-8-8-7-20 1-28 7-8 20-8 28 0l304 315c8 8 8 20 0 28-4 4-9 6-14 6z" fill="#fcfcfc"/></g><g><path d="m1417 925c-5 0-10-2-14-6-8-8-8-20-1-28l305-315c7-8 20-8 28 0s8 20 0 28l-304 315c-4 4-9 6-14 6z" fill="#fcfcfc"/></g></g></g><g><g><path d="m874 2263c-3 0-7-1-10-3-9-5-13-17-7-27l103-179c6-9 18-12 27-7 10 6 13 18 8 27l-103 179c-4 6-11 10-18 10z" fill="#fcfcfc"/></g><g><path d="m1959 2263c-7 0-14-4-17-10l-103-179c-6-9-3-21 7-27 9-5 22-2 27 7l103 179c6 10 3 22-7 27-3 2-6 3-10 3z" fill="#fcfcfc"/></g></g></g></g></g></svg>
